%TF.GenerationSoftware,KiCad,Pcbnew,8.0.2-8.0.2-0~ubuntu20.04.1*%
%TF.CreationDate,2024-06-07T14:08:50+05:00*%
%TF.ProjectId,RedStar,52656453-7461-4722-9e6b-696361645f70,v1.5*%
%TF.SameCoordinates,Original*%
%TF.FileFunction,Soldermask,Top*%
%TF.FilePolarity,Negative*%
%FSLAX46Y46*%
G04 Gerber Fmt 4.6, Leading zero omitted, Abs format (unit mm)*
G04 Created by KiCad (PCBNEW 8.0.2-8.0.2-0~ubuntu20.04.1) date 2024-06-07 14:08:50*
%MOMM*%
%LPD*%
G01*
G04 APERTURE LIST*
G04 Aperture macros list*
%AMRoundRect*
0 Rectangle with rounded corners*
0 $1 Rounding radius*
0 $2 $3 $4 $5 $6 $7 $8 $9 X,Y pos of 4 corners*
0 Add a 4 corners polygon primitive as box body*
4,1,4,$2,$3,$4,$5,$6,$7,$8,$9,$2,$3,0*
0 Add four circle primitives for the rounded corners*
1,1,$1+$1,$2,$3*
1,1,$1+$1,$4,$5*
1,1,$1+$1,$6,$7*
1,1,$1+$1,$8,$9*
0 Add four rect primitives between the rounded corners*
20,1,$1+$1,$2,$3,$4,$5,0*
20,1,$1+$1,$4,$5,$6,$7,0*
20,1,$1+$1,$6,$7,$8,$9,0*
20,1,$1+$1,$8,$9,$2,$3,0*%
G04 Aperture macros list end*
%ADD10R,1.600000X2.400000*%
%ADD11O,1.600000X2.400000*%
%ADD12C,1.400000*%
%ADD13O,1.400000X1.400000*%
%ADD14C,1.600000*%
%ADD15R,1.500000X1.500000*%
%ADD16C,1.500000*%
%ADD17R,1.600000X1.600000*%
%ADD18R,2.400000X1.600000*%
%ADD19O,2.400000X1.600000*%
%ADD20O,1.600000X1.600000*%
%ADD21C,3.500000*%
%ADD22R,1.700000X1.700000*%
%ADD23O,1.700000X1.700000*%
%ADD24C,0.800000*%
%ADD25C,6.400000*%
%ADD26C,4.000000*%
%ADD27R,1.800000X1.800000*%
%ADD28C,1.800000*%
%ADD29C,1.440000*%
%ADD30R,2.000000X2.000000*%
%ADD31C,2.000000*%
%ADD32RoundRect,0.150000X-0.825000X-0.150000X0.825000X-0.150000X0.825000X0.150000X-0.825000X0.150000X0*%
%ADD33RoundRect,0.250000X0.625000X-0.350000X0.625000X0.350000X-0.625000X0.350000X-0.625000X-0.350000X0*%
%ADD34O,1.750000X1.200000*%
G04 APERTURE END LIST*
D10*
%TO.C,DD17*%
X120015000Y-130810000D03*
D11*
X122555000Y-130810000D03*
X125095000Y-130810000D03*
X127635000Y-130810000D03*
X130175000Y-130810000D03*
X132715000Y-130810000D03*
X135255000Y-130810000D03*
X135255000Y-123190000D03*
X132715000Y-123190000D03*
X130175000Y-123190000D03*
X127635000Y-123190000D03*
X125095000Y-123190000D03*
X122555000Y-123190000D03*
X120015000Y-123190000D03*
%TD*%
D12*
%TO.C,R19*%
X171375000Y-69835000D03*
D13*
X171375000Y-77455000D03*
%TD*%
D14*
%TO.C,C45*%
X242521500Y-167640000D03*
X237521500Y-167640000D03*
%TD*%
D10*
%TO.C,DD41*%
X124455000Y-138415000D03*
D11*
X121915000Y-138415000D03*
X119375000Y-138415000D03*
X116835000Y-138415000D03*
X114295000Y-138415000D03*
X111755000Y-138415000D03*
X109215000Y-138415000D03*
X106675000Y-138415000D03*
X104135000Y-138415000D03*
X101595000Y-138415000D03*
X101595000Y-146035000D03*
X104135000Y-146035000D03*
X106675000Y-146035000D03*
X109215000Y-146035000D03*
X111755000Y-146035000D03*
X114295000Y-146035000D03*
X116835000Y-146035000D03*
X119375000Y-146035000D03*
X121915000Y-146035000D03*
X124455000Y-146035000D03*
%TD*%
D15*
%TO.C,DA2*%
X147955000Y-70993000D03*
D16*
X147955000Y-73533000D03*
X147955000Y-76073000D03*
%TD*%
D14*
%TO.C,C2*%
X142875000Y-87550000D03*
X142875000Y-82550000D03*
%TD*%
%TO.C,C24*%
X207090000Y-99060000D03*
X212090000Y-99060000D03*
%TD*%
D12*
%TO.C,R14*%
X153289000Y-105537000D03*
D13*
X160909000Y-105537000D03*
%TD*%
D17*
%TO.C,C39*%
X175693000Y-188920000D03*
D14*
X175693000Y-185420000D03*
%TD*%
D12*
%TO.C,R9*%
X109055000Y-77470000D03*
D13*
X116675000Y-77470000D03*
%TD*%
D14*
%TO.C,C17*%
X128270000Y-167600000D03*
X128270000Y-162600000D03*
%TD*%
D18*
%TO.C,DD37*%
X76200000Y-82550000D03*
D19*
X76200000Y-85090000D03*
X76200000Y-87630000D03*
X76200000Y-90170000D03*
X76200000Y-92710000D03*
X76200000Y-95250000D03*
X76200000Y-97790000D03*
X76200000Y-100330000D03*
X83820000Y-100330000D03*
X83820000Y-97790000D03*
X83820000Y-95250000D03*
X83820000Y-92710000D03*
X83820000Y-90170000D03*
X83820000Y-87630000D03*
X83820000Y-85090000D03*
X83820000Y-82550000D03*
%TD*%
D18*
%TO.C,DD1*%
X186690000Y-80010000D03*
D19*
X186690000Y-82550000D03*
X186690000Y-85090000D03*
X186690000Y-87630000D03*
X186690000Y-90170000D03*
X186690000Y-92710000D03*
X186690000Y-95250000D03*
X186690000Y-97790000D03*
X186690000Y-100330000D03*
X186690000Y-102870000D03*
X186690000Y-105410000D03*
X186690000Y-107950000D03*
X186690000Y-110490000D03*
X186690000Y-113030000D03*
X186690000Y-115570000D03*
X186690000Y-118110000D03*
X186690000Y-120650000D03*
X186690000Y-123190000D03*
X186690000Y-125730000D03*
X186690000Y-128270000D03*
X201930000Y-128270000D03*
X201930000Y-125730000D03*
X201930000Y-123190000D03*
X201930000Y-120650000D03*
X201930000Y-118110000D03*
X201930000Y-115570000D03*
X201930000Y-113030000D03*
X201930000Y-110490000D03*
X201930000Y-107950000D03*
X201930000Y-105410000D03*
X201930000Y-102870000D03*
X201930000Y-100330000D03*
X201930000Y-97790000D03*
X201930000Y-95250000D03*
X201930000Y-92710000D03*
X201930000Y-90170000D03*
X201930000Y-87630000D03*
X201930000Y-85090000D03*
X201930000Y-82550000D03*
X201930000Y-80010000D03*
%TD*%
D17*
%TO.C,VD3*%
X98895000Y-74930000D03*
D20*
X106515000Y-74930000D03*
%TD*%
D14*
%TO.C,C13*%
X171450000Y-99020000D03*
X171450000Y-94020000D03*
%TD*%
%TO.C,J2*%
X299436000Y-186484000D03*
X302036000Y-186484000D03*
D21*
X307486000Y-189484000D03*
X300736000Y-190284000D03*
D14*
X297336000Y-186484000D03*
D21*
X293986000Y-189484000D03*
D14*
X304136000Y-186484000D03*
X297336000Y-183984000D03*
X304136000Y-183984000D03*
%TD*%
%TO.C,C10*%
X97790000Y-144740000D03*
X97790000Y-139740000D03*
%TD*%
D12*
%TO.C,R8*%
X109055000Y-74930000D03*
D13*
X116675000Y-74930000D03*
%TD*%
D12*
%TO.C,R7*%
X109055000Y-72390000D03*
D13*
X116675000Y-72390000D03*
%TD*%
D14*
%TO.C,J1*%
X281036000Y-186484000D03*
X283636000Y-186484000D03*
D21*
X289086000Y-189484000D03*
X282336000Y-190284000D03*
D14*
X278936000Y-186484000D03*
D21*
X275586000Y-189484000D03*
D14*
X285736000Y-186484000D03*
X278936000Y-183984000D03*
X285736000Y-183984000D03*
%TD*%
D22*
%TO.C,J3*%
X154940000Y-116205000D03*
D23*
X157480000Y-116205000D03*
X154940000Y-118745000D03*
X157480000Y-118745000D03*
X154940000Y-121285000D03*
X157480000Y-121285000D03*
X154940000Y-123825000D03*
X157480000Y-123825000D03*
%TD*%
D12*
%TO.C,R16*%
X142875000Y-127000000D03*
D13*
X150495000Y-127000000D03*
%TD*%
D14*
%TO.C,C5*%
X207050000Y-106680000D03*
X212050000Y-106680000D03*
%TD*%
%TO.C,C11*%
X285115000Y-124380000D03*
X285115000Y-119380000D03*
%TD*%
D24*
%TO.C,H2*%
X314070000Y-72400000D03*
X314772944Y-70702944D03*
X314772944Y-74097056D03*
X316470000Y-70000000D03*
D25*
X316470000Y-72400000D03*
D24*
X316470000Y-74800000D03*
X318167056Y-70702944D03*
X318167056Y-74097056D03*
X318870000Y-72400000D03*
%TD*%
D12*
%TO.C,R4*%
X252603000Y-127000000D03*
D13*
X260223000Y-127000000D03*
%TD*%
D10*
%TO.C,DD34*%
X275590000Y-148595000D03*
D11*
X278130000Y-148595000D03*
X280670000Y-148595000D03*
X283210000Y-148595000D03*
X285750000Y-148595000D03*
X288290000Y-148595000D03*
X290830000Y-148595000D03*
X293370000Y-148595000D03*
X295910000Y-148595000D03*
X298450000Y-148595000D03*
X300990000Y-148595000D03*
X303530000Y-148595000D03*
X306070000Y-148595000D03*
X308610000Y-148595000D03*
X308610000Y-133355000D03*
X306070000Y-133355000D03*
X303530000Y-133355000D03*
X300990000Y-133355000D03*
X298450000Y-133355000D03*
X295910000Y-133355000D03*
X293370000Y-133355000D03*
X290830000Y-133355000D03*
X288290000Y-133355000D03*
X285750000Y-133355000D03*
X283210000Y-133355000D03*
X280670000Y-133355000D03*
X278130000Y-133355000D03*
X275590000Y-133355000D03*
%TD*%
D14*
%TO.C,C25*%
X77545000Y-104130000D03*
X82545000Y-104130000D03*
%TD*%
D10*
%TO.C,DD19*%
X120010000Y-106695000D03*
D11*
X122550000Y-106695000D03*
X125090000Y-106695000D03*
X127630000Y-106695000D03*
X130170000Y-106695000D03*
X132710000Y-106695000D03*
X135250000Y-106695000D03*
X135250000Y-99075000D03*
X132710000Y-99075000D03*
X130170000Y-99075000D03*
X127630000Y-99075000D03*
X125090000Y-99075000D03*
X122550000Y-99075000D03*
X120010000Y-99075000D03*
%TD*%
D17*
%TO.C,C37*%
X155575000Y-71120000D03*
D14*
X155575000Y-76120000D03*
%TD*%
D12*
%TO.C,R5*%
X252603000Y-124460000D03*
D13*
X260223000Y-124460000D03*
%TD*%
D17*
%TO.C,VD2*%
X98895000Y-72390000D03*
D20*
X106515000Y-72390000D03*
%TD*%
D18*
%TO.C,DD14*%
X242570000Y-80010000D03*
D19*
X242570000Y-82550000D03*
X242570000Y-85090000D03*
X242570000Y-87630000D03*
X242570000Y-90170000D03*
X242570000Y-92710000D03*
X242570000Y-95250000D03*
X250190000Y-95250000D03*
X250190000Y-92710000D03*
X250190000Y-90170000D03*
X250190000Y-87630000D03*
X250190000Y-85090000D03*
X250190000Y-82550000D03*
X250190000Y-80010000D03*
%TD*%
D18*
%TO.C,DD13*%
X240030000Y-113030000D03*
D19*
X240030000Y-115570000D03*
X240030000Y-118110000D03*
X240030000Y-120650000D03*
X240030000Y-123190000D03*
X240030000Y-125730000D03*
X240030000Y-128270000D03*
X247650000Y-128270000D03*
X247650000Y-125730000D03*
X247650000Y-123190000D03*
X247650000Y-120650000D03*
X247650000Y-118110000D03*
X247650000Y-115570000D03*
X247650000Y-113030000D03*
%TD*%
D17*
%TO.C,J13*%
X231014000Y-179734500D03*
D14*
X228514000Y-179734500D03*
X228514000Y-181734500D03*
X231014000Y-181734500D03*
D26*
X235764000Y-184594500D03*
X223764000Y-184594500D03*
%TD*%
D10*
%TO.C,DD8*%
X266065000Y-125730000D03*
D11*
X268605000Y-125730000D03*
X271145000Y-125730000D03*
X273685000Y-125730000D03*
X276225000Y-125730000D03*
X278765000Y-125730000D03*
X281305000Y-125730000D03*
X281305000Y-118110000D03*
X278765000Y-118110000D03*
X276225000Y-118110000D03*
X273685000Y-118110000D03*
X271145000Y-118110000D03*
X268605000Y-118110000D03*
X266065000Y-118110000D03*
%TD*%
D18*
%TO.C,DD7*%
X205740000Y-80010000D03*
D19*
X205740000Y-82550000D03*
X205740000Y-85090000D03*
X205740000Y-87630000D03*
X205740000Y-90170000D03*
X205740000Y-92710000D03*
X205740000Y-95250000D03*
X213360000Y-95250000D03*
X213360000Y-92710000D03*
X213360000Y-90170000D03*
X213360000Y-87630000D03*
X213360000Y-85090000D03*
X213360000Y-82550000D03*
X213360000Y-80010000D03*
%TD*%
D14*
%TO.C,C30*%
X88975000Y-104130000D03*
X93975000Y-104130000D03*
%TD*%
%TO.C,C35*%
X271780000Y-143470000D03*
X271780000Y-138470000D03*
%TD*%
D18*
%TO.C,DD29*%
X254635000Y-85095000D03*
D19*
X254635000Y-87635000D03*
X254635000Y-90175000D03*
X254635000Y-92715000D03*
X254635000Y-95255000D03*
X254635000Y-97795000D03*
X254635000Y-100335000D03*
X254635000Y-102875000D03*
X254635000Y-105415000D03*
X254635000Y-107955000D03*
X254635000Y-110495000D03*
X254635000Y-113035000D03*
X269875000Y-113035000D03*
X269875000Y-110495000D03*
X269875000Y-107955000D03*
X269875000Y-105415000D03*
X269875000Y-102875000D03*
X269875000Y-100335000D03*
X269875000Y-97795000D03*
X269875000Y-95255000D03*
X269875000Y-92715000D03*
X269875000Y-90175000D03*
X269875000Y-87635000D03*
X269875000Y-85095000D03*
%TD*%
D12*
%TO.C,R12*%
X130175000Y-133985000D03*
D13*
X137795000Y-133985000D03*
%TD*%
D17*
%TO.C,C40*%
X185243000Y-188920000D03*
D14*
X185243000Y-185420000D03*
%TD*%
D17*
%TO.C,RN2*%
X92075000Y-151765000D03*
D20*
X92075000Y-149225000D03*
X92075000Y-146685000D03*
X92075000Y-144145000D03*
X92075000Y-141605000D03*
X92075000Y-139065000D03*
X92075000Y-136525000D03*
X92075000Y-133985000D03*
X92075000Y-131445000D03*
X92075000Y-128905000D03*
%TD*%
D14*
%TO.C,C27*%
X134700000Y-142240000D03*
X139700000Y-142240000D03*
%TD*%
D18*
%TO.C,DD24*%
X144705000Y-147305000D03*
D19*
X144705000Y-149845000D03*
X144705000Y-152385000D03*
X144705000Y-154925000D03*
X144705000Y-157465000D03*
X144705000Y-160005000D03*
X144705000Y-162545000D03*
X144705000Y-165085000D03*
X144705000Y-167625000D03*
X144705000Y-170165000D03*
X144705000Y-172705000D03*
X144705000Y-175245000D03*
X144705000Y-177785000D03*
X144705000Y-180325000D03*
X152325000Y-180325000D03*
X152325000Y-177785000D03*
X152325000Y-175245000D03*
X152325000Y-172705000D03*
X152325000Y-170165000D03*
X152325000Y-167625000D03*
X152325000Y-165085000D03*
X152325000Y-162545000D03*
X152325000Y-160005000D03*
X152325000Y-157465000D03*
X152325000Y-154925000D03*
X152325000Y-152385000D03*
X152325000Y-149845000D03*
X152325000Y-147305000D03*
%TD*%
D12*
%TO.C,R10*%
X150495000Y-129540000D03*
D13*
X142875000Y-129540000D03*
%TD*%
D22*
%TO.C,J10*%
X301000000Y-76327000D03*
D23*
X303540000Y-76327000D03*
X306080000Y-76327000D03*
X308620000Y-76327000D03*
%TD*%
D17*
%TO.C,VD1*%
X98895000Y-69850000D03*
D20*
X106515000Y-69850000D03*
%TD*%
D14*
%TO.C,C21*%
X97790000Y-156210000D03*
X97790000Y-151210000D03*
%TD*%
%TO.C,C18*%
X229910000Y-132080000D03*
X234910000Y-132080000D03*
%TD*%
%TO.C,C12*%
X218480000Y-99060000D03*
X223480000Y-99060000D03*
%TD*%
D24*
%TO.C,H1*%
X78070000Y-72400000D03*
X78772944Y-70702944D03*
X78772944Y-74097056D03*
X80470000Y-70000000D03*
D25*
X80470000Y-72400000D03*
D24*
X80470000Y-74800000D03*
X82167056Y-70702944D03*
X82167056Y-74097056D03*
X82870000Y-72400000D03*
%TD*%
D14*
%TO.C,C23*%
X211455000Y-189825000D03*
X211455000Y-184825000D03*
%TD*%
D27*
%TO.C,LED1*%
X216353000Y-188500500D03*
D28*
X218893000Y-188500500D03*
%TD*%
D24*
%TO.C,H3*%
X314070000Y-188400000D03*
X314772944Y-186702944D03*
X314772944Y-190097056D03*
X316470000Y-186000000D03*
D25*
X316470000Y-188400000D03*
D24*
X316470000Y-190800000D03*
X318167056Y-186702944D03*
X318167056Y-190097056D03*
X318870000Y-188400000D03*
%TD*%
D12*
%TO.C,R6*%
X109055000Y-69850000D03*
D13*
X116675000Y-69850000D03*
%TD*%
D14*
%TO.C,C31*%
X271705000Y-189175000D03*
X271705000Y-184175000D03*
%TD*%
D17*
%TO.C,C41*%
X194793000Y-188920000D03*
D14*
X194793000Y-185420000D03*
%TD*%
D10*
%TO.C,DD40*%
X124455000Y-149845000D03*
D11*
X121915000Y-149845000D03*
X119375000Y-149845000D03*
X116835000Y-149845000D03*
X114295000Y-149845000D03*
X111755000Y-149845000D03*
X109215000Y-149845000D03*
X106675000Y-149845000D03*
X104135000Y-149845000D03*
X101595000Y-149845000D03*
X101595000Y-157465000D03*
X104135000Y-157465000D03*
X106675000Y-157465000D03*
X109215000Y-157465000D03*
X111755000Y-157465000D03*
X114295000Y-157465000D03*
X116835000Y-157465000D03*
X119375000Y-157465000D03*
X121915000Y-157465000D03*
X124455000Y-157465000D03*
%TD*%
D18*
%TO.C,DD28*%
X308045000Y-128275000D03*
D19*
X308045000Y-125735000D03*
X308045000Y-123195000D03*
X308045000Y-120655000D03*
X308045000Y-118115000D03*
X308045000Y-115575000D03*
X308045000Y-113035000D03*
X308045000Y-110495000D03*
X308045000Y-107955000D03*
X308045000Y-105415000D03*
X308045000Y-102875000D03*
X308045000Y-100335000D03*
X308045000Y-97795000D03*
X308045000Y-95255000D03*
X308045000Y-92715000D03*
X308045000Y-90175000D03*
X308045000Y-87635000D03*
X308045000Y-85095000D03*
X308045000Y-82555000D03*
X308045000Y-80015000D03*
X292805000Y-80015000D03*
X292805000Y-82555000D03*
X292805000Y-85095000D03*
X292805000Y-87635000D03*
X292805000Y-90175000D03*
X292805000Y-92715000D03*
X292805000Y-95255000D03*
X292805000Y-97795000D03*
X292805000Y-100335000D03*
X292805000Y-102875000D03*
X292805000Y-105415000D03*
X292805000Y-107955000D03*
X292805000Y-110495000D03*
X292805000Y-113035000D03*
X292805000Y-115575000D03*
X292805000Y-118115000D03*
X292805000Y-120655000D03*
X292805000Y-123195000D03*
X292805000Y-125735000D03*
X292805000Y-128275000D03*
%TD*%
D18*
%TO.C,DD21*%
X217170000Y-105410000D03*
D19*
X217170000Y-107950000D03*
X217170000Y-110490000D03*
X217170000Y-113030000D03*
X217170000Y-115570000D03*
X217170000Y-118110000D03*
X217170000Y-120650000D03*
X217170000Y-123190000D03*
X217170000Y-125730000D03*
X217170000Y-128270000D03*
X224790000Y-128270000D03*
X224790000Y-125730000D03*
X224790000Y-123190000D03*
X224790000Y-120650000D03*
X224790000Y-118110000D03*
X224790000Y-115570000D03*
X224790000Y-113030000D03*
X224790000Y-110490000D03*
X224790000Y-107950000D03*
X224790000Y-105410000D03*
%TD*%
D18*
%TO.C,DD44*%
X131915000Y-69850000D03*
D19*
X131915000Y-72390000D03*
X131915000Y-74930000D03*
X131915000Y-77470000D03*
X139535000Y-77470000D03*
X139535000Y-74930000D03*
X139535000Y-72390000D03*
X139535000Y-69850000D03*
%TD*%
D17*
%TO.C,VD4*%
X98895000Y-77470000D03*
D20*
X106515000Y-77470000D03*
%TD*%
D14*
%TO.C,C14*%
X243880000Y-76332000D03*
X248880000Y-76332000D03*
%TD*%
D10*
%TO.C,DD2*%
X152400000Y-100330000D03*
D11*
X154940000Y-100330000D03*
X157480000Y-100330000D03*
X160020000Y-100330000D03*
X162560000Y-100330000D03*
X165100000Y-100330000D03*
X167640000Y-100330000D03*
X167640000Y-92710000D03*
X165100000Y-92710000D03*
X162560000Y-92710000D03*
X160020000Y-92710000D03*
X157480000Y-92710000D03*
X154940000Y-92710000D03*
X152400000Y-92710000D03*
%TD*%
D10*
%TO.C,DD42*%
X228595000Y-144795000D03*
D11*
X231135000Y-144795000D03*
X233675000Y-144795000D03*
X236215000Y-144795000D03*
X238755000Y-144795000D03*
X241295000Y-144795000D03*
X243835000Y-144795000D03*
X246375000Y-144795000D03*
X248915000Y-144795000D03*
X251455000Y-144795000D03*
X253995000Y-144795000D03*
X256535000Y-144795000D03*
X256535000Y-137175000D03*
X253995000Y-137175000D03*
X251455000Y-137175000D03*
X248915000Y-137175000D03*
X246375000Y-137175000D03*
X243835000Y-137175000D03*
X241295000Y-137175000D03*
X238755000Y-137175000D03*
X236215000Y-137175000D03*
X233675000Y-137175000D03*
X231135000Y-137175000D03*
X228595000Y-137175000D03*
%TD*%
D10*
%TO.C,DD38*%
X124455000Y-172705000D03*
D11*
X121915000Y-172705000D03*
X119375000Y-172705000D03*
X116835000Y-172705000D03*
X114295000Y-172705000D03*
X111755000Y-172705000D03*
X109215000Y-172705000D03*
X106675000Y-172705000D03*
X104135000Y-172705000D03*
X101595000Y-172705000D03*
X101595000Y-180325000D03*
X104135000Y-180325000D03*
X106675000Y-180325000D03*
X109215000Y-180325000D03*
X111755000Y-180325000D03*
X114295000Y-180325000D03*
X116835000Y-180325000D03*
X119375000Y-180325000D03*
X121915000Y-180325000D03*
X124455000Y-180325000D03*
%TD*%
D22*
%TO.C,J4*%
X223520000Y-148590000D03*
D23*
X226060000Y-148590000D03*
X228600000Y-148590000D03*
X231140000Y-148590000D03*
X233680000Y-148590000D03*
X236220000Y-148590000D03*
X238760000Y-148590000D03*
X241300000Y-148590000D03*
X243840000Y-148590000D03*
X246380000Y-148590000D03*
X248920000Y-148590000D03*
X251460000Y-148590000D03*
X254000000Y-148590000D03*
X256540000Y-148590000D03*
X259080000Y-148590000D03*
X261620000Y-148590000D03*
%TD*%
D14*
%TO.C,C3*%
X265350000Y-175935000D03*
X265350000Y-180935000D03*
%TD*%
D18*
%TO.C,DD32*%
X198120000Y-147320000D03*
D19*
X198120000Y-149860000D03*
X198120000Y-152400000D03*
X198120000Y-154940000D03*
X198120000Y-157480000D03*
X198120000Y-160020000D03*
X198120000Y-162560000D03*
X198120000Y-165100000D03*
X198120000Y-167640000D03*
X198120000Y-170180000D03*
X198120000Y-172720000D03*
X198120000Y-175260000D03*
X198120000Y-177800000D03*
X198120000Y-180340000D03*
X213360000Y-180340000D03*
X213360000Y-177800000D03*
X213360000Y-175260000D03*
X213360000Y-172720000D03*
X213360000Y-170180000D03*
X213360000Y-167640000D03*
X213360000Y-165100000D03*
X213360000Y-162560000D03*
X213360000Y-160020000D03*
X213360000Y-157480000D03*
X213360000Y-154940000D03*
X213360000Y-152400000D03*
X213360000Y-149860000D03*
X213360000Y-147320000D03*
%TD*%
D18*
%TO.C,DD20*%
X205740000Y-110490000D03*
D19*
X205740000Y-113030000D03*
X205740000Y-115570000D03*
X205740000Y-118110000D03*
X205740000Y-120650000D03*
X205740000Y-123190000D03*
X205740000Y-125730000D03*
X205740000Y-128270000D03*
X213360000Y-128270000D03*
X213360000Y-125730000D03*
X213360000Y-123190000D03*
X213360000Y-120650000D03*
X213360000Y-118110000D03*
X213360000Y-115570000D03*
X213360000Y-113030000D03*
X213360000Y-110490000D03*
%TD*%
D18*
%TO.C,DD27*%
X99060000Y-82550000D03*
D19*
X99060000Y-85090000D03*
X99060000Y-87630000D03*
X99060000Y-90170000D03*
X99060000Y-92710000D03*
X99060000Y-95250000D03*
X99060000Y-97790000D03*
X99060000Y-100330000D03*
X99060000Y-102870000D03*
X99060000Y-105410000D03*
X99060000Y-107950000D03*
X99060000Y-110490000D03*
X99060000Y-113030000D03*
X99060000Y-115570000D03*
X99060000Y-118110000D03*
X99060000Y-120650000D03*
X99060000Y-123190000D03*
X99060000Y-125730000D03*
X99060000Y-128270000D03*
X99060000Y-130810000D03*
X114300000Y-130810000D03*
X114300000Y-128270000D03*
X114300000Y-125730000D03*
X114300000Y-123190000D03*
X114300000Y-120650000D03*
X114300000Y-118110000D03*
X114300000Y-115570000D03*
X114300000Y-113030000D03*
X114300000Y-110490000D03*
X114300000Y-107950000D03*
X114300000Y-105410000D03*
X114300000Y-102870000D03*
X114300000Y-100330000D03*
X114300000Y-97790000D03*
X114300000Y-95250000D03*
X114300000Y-92710000D03*
X114300000Y-90170000D03*
X114300000Y-87630000D03*
X114300000Y-85090000D03*
X114300000Y-82550000D03*
%TD*%
D18*
%TO.C,DD43*%
X120315000Y-69850000D03*
D19*
X120315000Y-72390000D03*
X120315000Y-74930000D03*
X120315000Y-77470000D03*
X127935000Y-77470000D03*
X127935000Y-74930000D03*
X127935000Y-72390000D03*
X127935000Y-69850000D03*
%TD*%
D29*
%TO.C,RV1*%
X158115000Y-186690000D03*
X155575000Y-186690000D03*
X153035000Y-186690000D03*
%TD*%
D10*
%TO.C,DD3*%
X152400000Y-87630000D03*
D11*
X154940000Y-87630000D03*
X157480000Y-87630000D03*
X160020000Y-87630000D03*
X162560000Y-87630000D03*
X165100000Y-87630000D03*
X167640000Y-87630000D03*
X167640000Y-80010000D03*
X165100000Y-80010000D03*
X162560000Y-80010000D03*
X160020000Y-80010000D03*
X157480000Y-80010000D03*
X154940000Y-80010000D03*
X152400000Y-80010000D03*
%TD*%
D18*
%TO.C,DD31*%
X179070000Y-147320000D03*
D19*
X179070000Y-149860000D03*
X179070000Y-152400000D03*
X179070000Y-154940000D03*
X179070000Y-157480000D03*
X179070000Y-160020000D03*
X179070000Y-162560000D03*
X179070000Y-165100000D03*
X179070000Y-167640000D03*
X179070000Y-170180000D03*
X179070000Y-172720000D03*
X179070000Y-175260000D03*
X179070000Y-177800000D03*
X179070000Y-180340000D03*
X194310000Y-180340000D03*
X194310000Y-177800000D03*
X194310000Y-175260000D03*
X194310000Y-172720000D03*
X194310000Y-170180000D03*
X194310000Y-167640000D03*
X194310000Y-165100000D03*
X194310000Y-162560000D03*
X194310000Y-160020000D03*
X194310000Y-157480000D03*
X194310000Y-154940000D03*
X194310000Y-152400000D03*
X194310000Y-149860000D03*
X194310000Y-147320000D03*
%TD*%
D14*
%TO.C,C26*%
X163235000Y-186055000D03*
X168235000Y-186055000D03*
%TD*%
%TO.C,C4*%
X265350000Y-172680000D03*
X265350000Y-167680000D03*
%TD*%
%TO.C,C32*%
X278845000Y-81280000D03*
X283845000Y-81280000D03*
%TD*%
D18*
%TO.C,DD4*%
X175260000Y-80010000D03*
D19*
X175260000Y-82550000D03*
X175260000Y-85090000D03*
X175260000Y-87630000D03*
X175260000Y-90170000D03*
X175260000Y-92710000D03*
X175260000Y-95250000D03*
X182880000Y-95250000D03*
X182880000Y-92710000D03*
X182880000Y-90170000D03*
X182880000Y-87630000D03*
X182880000Y-85090000D03*
X182880000Y-82550000D03*
X182880000Y-80010000D03*
%TD*%
D18*
%TO.C,DD22*%
X142875000Y-106045000D03*
D19*
X142875000Y-108585000D03*
X142875000Y-111125000D03*
X142875000Y-113665000D03*
X142875000Y-116205000D03*
X142875000Y-118745000D03*
X142875000Y-121285000D03*
X142875000Y-123825000D03*
X150495000Y-123825000D03*
X150495000Y-121285000D03*
X150495000Y-118745000D03*
X150495000Y-116205000D03*
X150495000Y-113665000D03*
X150495000Y-111125000D03*
X150495000Y-108585000D03*
X150495000Y-106045000D03*
%TD*%
D12*
%TO.C,R2*%
X252603000Y-119380000D03*
D13*
X260223000Y-119380000D03*
%TD*%
D17*
%TO.C,C42*%
X204343000Y-188920000D03*
D14*
X204343000Y-185420000D03*
%TD*%
%TO.C,C36*%
X143510000Y-71120000D03*
X143510000Y-76120000D03*
%TD*%
%TO.C,C33*%
X291465000Y-76200000D03*
X296465000Y-76200000D03*
%TD*%
D10*
%TO.C,DD45*%
X243840000Y-101600000D03*
D11*
X241300000Y-101600000D03*
X238760000Y-101600000D03*
X236220000Y-101600000D03*
X233680000Y-101600000D03*
X231140000Y-101600000D03*
X228600000Y-101600000D03*
X228600000Y-109220000D03*
X231140000Y-109220000D03*
X233680000Y-109220000D03*
X236220000Y-109220000D03*
X238760000Y-109220000D03*
X241300000Y-109220000D03*
X243840000Y-109220000D03*
%TD*%
D18*
%TO.C,DD10*%
X217170000Y-80010000D03*
D19*
X217170000Y-82550000D03*
X217170000Y-85090000D03*
X217170000Y-87630000D03*
X217170000Y-90170000D03*
X217170000Y-92710000D03*
X217170000Y-95250000D03*
X224790000Y-95250000D03*
X224790000Y-92710000D03*
X224790000Y-90170000D03*
X224790000Y-87630000D03*
X224790000Y-85090000D03*
X224790000Y-82550000D03*
X224790000Y-80010000D03*
%TD*%
D10*
%TO.C,DD35*%
X308600000Y-171435000D03*
D11*
X306060000Y-171435000D03*
X303520000Y-171435000D03*
X300980000Y-171435000D03*
X298440000Y-171435000D03*
X295900000Y-171435000D03*
X293360000Y-171435000D03*
X290820000Y-171435000D03*
X288280000Y-171435000D03*
X285740000Y-171435000D03*
X283200000Y-171435000D03*
X280660000Y-171435000D03*
X278120000Y-171435000D03*
X275580000Y-171435000D03*
X275580000Y-179055000D03*
X278120000Y-179055000D03*
X280660000Y-179055000D03*
X283200000Y-179055000D03*
X285740000Y-179055000D03*
X288280000Y-179055000D03*
X290820000Y-179055000D03*
X293360000Y-179055000D03*
X295900000Y-179055000D03*
X298440000Y-179055000D03*
X300980000Y-179055000D03*
X303520000Y-179055000D03*
X306060000Y-179055000D03*
X308600000Y-179055000D03*
%TD*%
D18*
%TO.C,DD23*%
X133275000Y-147305000D03*
D19*
X133275000Y-149845000D03*
X133275000Y-152385000D03*
X133275000Y-154925000D03*
X133275000Y-157465000D03*
X133275000Y-160005000D03*
X133275000Y-162545000D03*
X133275000Y-165085000D03*
X133275000Y-167625000D03*
X133275000Y-170165000D03*
X133275000Y-172705000D03*
X133275000Y-175245000D03*
X133275000Y-177785000D03*
X133275000Y-180325000D03*
X140895000Y-180325000D03*
X140895000Y-177785000D03*
X140895000Y-175245000D03*
X140895000Y-172705000D03*
X140895000Y-170165000D03*
X140895000Y-167625000D03*
X140895000Y-165085000D03*
X140895000Y-162545000D03*
X140895000Y-160005000D03*
X140895000Y-157465000D03*
X140895000Y-154925000D03*
X140895000Y-152385000D03*
X140895000Y-149845000D03*
X140895000Y-147305000D03*
%TD*%
D22*
%TO.C,J7*%
X312617000Y-80015000D03*
D23*
X312617000Y-82555000D03*
X312617000Y-85095000D03*
X312617000Y-87635000D03*
X312617000Y-90175000D03*
X312617000Y-92715000D03*
X312617000Y-95255000D03*
X312617000Y-97795000D03*
%TD*%
D10*
%TO.C,DD26*%
X190500000Y-142240000D03*
D11*
X193040000Y-142240000D03*
X195580000Y-142240000D03*
X198120000Y-142240000D03*
X200660000Y-142240000D03*
X203200000Y-142240000D03*
X205740000Y-142240000D03*
X208280000Y-142240000D03*
X210820000Y-142240000D03*
X213360000Y-142240000D03*
X215900000Y-142240000D03*
X218440000Y-142240000D03*
X218440000Y-134620000D03*
X215900000Y-134620000D03*
X213360000Y-134620000D03*
X210820000Y-134620000D03*
X208280000Y-134620000D03*
X205740000Y-134620000D03*
X203200000Y-134620000D03*
X200660000Y-134620000D03*
X198120000Y-134620000D03*
X195580000Y-134620000D03*
X193040000Y-134620000D03*
X190500000Y-134620000D03*
%TD*%
D17*
%TO.C,J12*%
X255175000Y-179734500D03*
D14*
X252675000Y-179734500D03*
X252675000Y-181734500D03*
X255175000Y-181734500D03*
D26*
X259925000Y-184594500D03*
X247925000Y-184594500D03*
%TD*%
D14*
%TO.C,C28*%
X256505000Y-81265000D03*
X261505000Y-81265000D03*
%TD*%
D22*
%TO.C,J8*%
X312617000Y-153675000D03*
D23*
X312617000Y-156215000D03*
X312617000Y-158755000D03*
X312617000Y-161295000D03*
X312617000Y-163835000D03*
X312617000Y-166375000D03*
X312617000Y-168915000D03*
X312617000Y-171455000D03*
X312617000Y-173995000D03*
X312617000Y-176535000D03*
%TD*%
D18*
%TO.C,DD12*%
X83815000Y-123180000D03*
D19*
X83815000Y-120640000D03*
X83815000Y-118100000D03*
X83815000Y-115560000D03*
X83815000Y-113020000D03*
X83815000Y-110480000D03*
X83815000Y-107940000D03*
X76195000Y-107940000D03*
X76195000Y-110480000D03*
X76195000Y-113020000D03*
X76195000Y-115560000D03*
X76195000Y-118100000D03*
X76195000Y-120640000D03*
X76195000Y-123180000D03*
%TD*%
D14*
%TO.C,C8*%
X248285000Y-107950000D03*
X248285000Y-102950000D03*
%TD*%
%TO.C,C29*%
X128270000Y-178990000D03*
X128270000Y-173990000D03*
%TD*%
D12*
%TO.C,R13*%
X130175000Y-136525000D03*
D13*
X137795000Y-136525000D03*
%TD*%
D17*
%TO.C,C38*%
X165025000Y-71120000D03*
D14*
X165025000Y-76120000D03*
%TD*%
D10*
%TO.C,DD18*%
X120015000Y-118745000D03*
D11*
X122555000Y-118745000D03*
X125095000Y-118745000D03*
X127635000Y-118745000D03*
X130175000Y-118745000D03*
X132715000Y-118745000D03*
X135255000Y-118745000D03*
X135255000Y-111125000D03*
X132715000Y-111125000D03*
X130175000Y-111125000D03*
X127635000Y-111125000D03*
X125095000Y-111125000D03*
X122555000Y-111125000D03*
X120015000Y-111125000D03*
%TD*%
D12*
%TO.C,R18*%
X260350000Y-132461000D03*
D13*
X252730000Y-132461000D03*
%TD*%
D18*
%TO.C,DD9*%
X228600000Y-113030000D03*
D19*
X228600000Y-115570000D03*
X228600000Y-118110000D03*
X228600000Y-120650000D03*
X228600000Y-123190000D03*
X228600000Y-125730000D03*
X228600000Y-128270000D03*
X236220000Y-128270000D03*
X236220000Y-125730000D03*
X236220000Y-123190000D03*
X236220000Y-120650000D03*
X236220000Y-118110000D03*
X236220000Y-115570000D03*
X236220000Y-113030000D03*
%TD*%
D30*
%TO.C,BZ1*%
X265990000Y-74915000D03*
D31*
X275990000Y-74915000D03*
%TD*%
D22*
%TO.C,J9*%
X312617000Y-125735000D03*
D23*
X312617000Y-128275000D03*
X312617000Y-130815000D03*
X312617000Y-133355000D03*
X312617000Y-135895000D03*
X312617000Y-138435000D03*
X312617000Y-140975000D03*
X312617000Y-143515000D03*
X312617000Y-146055000D03*
X312617000Y-148595000D03*
%TD*%
D17*
%TO.C,RN1*%
X228600000Y-76200000D03*
D20*
X226060000Y-76200000D03*
X223520000Y-76200000D03*
X220980000Y-76200000D03*
X218440000Y-76200000D03*
X215900000Y-76200000D03*
X213360000Y-76200000D03*
X210820000Y-76200000D03*
X208280000Y-76200000D03*
X205740000Y-76200000D03*
%TD*%
D16*
%TO.C,Y2*%
X270510000Y-177800000D03*
X270510000Y-172920000D03*
%TD*%
D14*
%TO.C,C6*%
X171450000Y-86320000D03*
X171450000Y-81320000D03*
%TD*%
D18*
%TO.C,DD30*%
X273685000Y-85095000D03*
D19*
X273685000Y-87635000D03*
X273685000Y-90175000D03*
X273685000Y-92715000D03*
X273685000Y-95255000D03*
X273685000Y-97795000D03*
X273685000Y-100335000D03*
X273685000Y-102875000D03*
X273685000Y-105415000D03*
X273685000Y-107955000D03*
X273685000Y-110495000D03*
X273685000Y-113035000D03*
X288925000Y-113035000D03*
X288925000Y-110495000D03*
X288925000Y-107955000D03*
X288925000Y-105415000D03*
X288925000Y-102875000D03*
X288925000Y-100335000D03*
X288925000Y-97795000D03*
X288925000Y-95255000D03*
X288925000Y-92715000D03*
X288925000Y-90175000D03*
X288925000Y-87635000D03*
X288925000Y-85095000D03*
%TD*%
D14*
%TO.C,C9*%
X139065000Y-129540000D03*
X139065000Y-124540000D03*
%TD*%
D10*
%TO.C,DD39*%
X124455000Y-161260000D03*
D11*
X121915000Y-161260000D03*
X119375000Y-161260000D03*
X116835000Y-161260000D03*
X114295000Y-161260000D03*
X111755000Y-161260000D03*
X109215000Y-161260000D03*
X106675000Y-161260000D03*
X104135000Y-161260000D03*
X101595000Y-161260000D03*
X101595000Y-168880000D03*
X104135000Y-168880000D03*
X106675000Y-168880000D03*
X109215000Y-168880000D03*
X111755000Y-168880000D03*
X114295000Y-168880000D03*
X116835000Y-168880000D03*
X119375000Y-168880000D03*
X121915000Y-168880000D03*
X124455000Y-168880000D03*
%TD*%
D18*
%TO.C,DD11*%
X95260000Y-123185000D03*
D19*
X95260000Y-120645000D03*
X95260000Y-118105000D03*
X95260000Y-115565000D03*
X95260000Y-113025000D03*
X95260000Y-110485000D03*
X95260000Y-107945000D03*
X87640000Y-107945000D03*
X87640000Y-110485000D03*
X87640000Y-113025000D03*
X87640000Y-115565000D03*
X87640000Y-118105000D03*
X87640000Y-120645000D03*
X87640000Y-123185000D03*
%TD*%
D12*
%TO.C,R3*%
X252603000Y-121920000D03*
D13*
X260223000Y-121920000D03*
%TD*%
D14*
%TO.C,C1*%
X147320000Y-87550000D03*
X147320000Y-82550000D03*
%TD*%
%TO.C,C7*%
X176570000Y-76200000D03*
X181570000Y-76200000D03*
%TD*%
%TO.C,C16*%
X139065000Y-117515000D03*
X139065000Y-112515000D03*
%TD*%
D27*
%TO.C,LED2*%
X240590000Y-188500500D03*
D28*
X243130000Y-188500500D03*
%TD*%
D12*
%TO.C,R17*%
X253925000Y-78090000D03*
D13*
X261545000Y-78090000D03*
%TD*%
D14*
%TO.C,C19*%
X176570000Y-101600000D03*
X181570000Y-101600000D03*
%TD*%
D22*
%TO.C,U1*%
X86990000Y-179690000D03*
D23*
X84450000Y-179690000D03*
X86990000Y-177150000D03*
X84450000Y-177150000D03*
X86990000Y-174610000D03*
X84450000Y-174610000D03*
X86990000Y-172070000D03*
X84450000Y-172070000D03*
X86990000Y-169530000D03*
X84450000Y-169530000D03*
X86990000Y-166990000D03*
X84450000Y-166990000D03*
X86990000Y-164450000D03*
X84450000Y-164450000D03*
X86990000Y-161910000D03*
X84450000Y-161910000D03*
X86990000Y-159370000D03*
X84450000Y-159370000D03*
X86990000Y-156830000D03*
X84450000Y-156830000D03*
X86990000Y-154290000D03*
X84450000Y-154290000D03*
X86990000Y-151750000D03*
X84450000Y-151750000D03*
X86990000Y-149210000D03*
X84450000Y-149210000D03*
X86990000Y-146670000D03*
X84450000Y-146670000D03*
X86990000Y-144130000D03*
X84450000Y-144130000D03*
X86990000Y-141590000D03*
X84450000Y-141590000D03*
X86990000Y-139050000D03*
X84450000Y-139050000D03*
X86990000Y-136510000D03*
X84450000Y-136510000D03*
X86990000Y-133970000D03*
X84450000Y-133970000D03*
X86990000Y-131430000D03*
X84450000Y-131430000D03*
X86990000Y-128890000D03*
X84450000Y-128890000D03*
%TD*%
D18*
%TO.C,DD6*%
X171450000Y-128270000D03*
D19*
X171450000Y-125730000D03*
X171450000Y-123190000D03*
X171450000Y-120650000D03*
X171450000Y-118110000D03*
X171450000Y-115570000D03*
X171450000Y-113030000D03*
X171450000Y-110490000D03*
X171450000Y-107950000D03*
X171450000Y-105410000D03*
X163830000Y-105410000D03*
X163830000Y-107950000D03*
X163830000Y-110490000D03*
X163830000Y-113030000D03*
X163830000Y-115570000D03*
X163830000Y-118110000D03*
X163830000Y-120650000D03*
X163830000Y-123190000D03*
X163830000Y-125730000D03*
X163830000Y-128270000D03*
%TD*%
D18*
%TO.C,DD15*%
X231140000Y-80010000D03*
D19*
X231140000Y-82550000D03*
X231140000Y-85090000D03*
X231140000Y-87630000D03*
X231140000Y-90170000D03*
X231140000Y-92710000D03*
X231140000Y-95250000D03*
X238760000Y-95250000D03*
X238760000Y-92710000D03*
X238760000Y-90170000D03*
X238760000Y-87630000D03*
X238760000Y-85090000D03*
X238760000Y-82550000D03*
X238760000Y-80010000D03*
%TD*%
D12*
%TO.C,R11*%
X234950000Y-175260000D03*
D13*
X234950000Y-167640000D03*
%TD*%
D22*
%TO.C,J5*%
X144780000Y-186690000D03*
D23*
X142240000Y-186690000D03*
X139700000Y-186690000D03*
X137160000Y-186690000D03*
X134620000Y-186690000D03*
X132080000Y-186690000D03*
X129540000Y-186690000D03*
X127000000Y-186690000D03*
X124460000Y-186690000D03*
X121920000Y-186690000D03*
X119380000Y-186690000D03*
X116840000Y-186690000D03*
X114300000Y-186690000D03*
X111760000Y-186690000D03*
X109220000Y-186690000D03*
X106680000Y-186690000D03*
X104140000Y-186690000D03*
X101600000Y-186690000D03*
X99060000Y-186690000D03*
X96520000Y-186690000D03*
X93980000Y-186690000D03*
%TD*%
D10*
%TO.C,DD16*%
X120015000Y-94615000D03*
D11*
X122555000Y-94615000D03*
X125095000Y-94615000D03*
X127635000Y-94615000D03*
X130175000Y-94615000D03*
X132715000Y-94615000D03*
X135255000Y-94615000D03*
X135255000Y-86995000D03*
X132715000Y-86995000D03*
X130175000Y-86995000D03*
X127635000Y-86995000D03*
X125095000Y-86995000D03*
X122555000Y-86995000D03*
X120015000Y-86995000D03*
%TD*%
D10*
%TO.C,DD33*%
X275590000Y-167645000D03*
D11*
X278130000Y-167645000D03*
X280670000Y-167645000D03*
X283210000Y-167645000D03*
X285750000Y-167645000D03*
X288290000Y-167645000D03*
X290830000Y-167645000D03*
X293370000Y-167645000D03*
X295910000Y-167645000D03*
X298450000Y-167645000D03*
X300990000Y-167645000D03*
X303530000Y-167645000D03*
X306070000Y-167645000D03*
X308610000Y-167645000D03*
X308610000Y-152405000D03*
X306070000Y-152405000D03*
X303530000Y-152405000D03*
X300990000Y-152405000D03*
X298450000Y-152405000D03*
X295910000Y-152405000D03*
X293370000Y-152405000D03*
X290830000Y-152405000D03*
X288290000Y-152405000D03*
X285750000Y-152405000D03*
X283210000Y-152405000D03*
X280670000Y-152405000D03*
X278130000Y-152405000D03*
X275590000Y-152405000D03*
%TD*%
D18*
%TO.C,DD5*%
X182880000Y-128270000D03*
D19*
X182880000Y-125730000D03*
X182880000Y-123190000D03*
X182880000Y-120650000D03*
X182880000Y-118110000D03*
X182880000Y-115570000D03*
X182880000Y-113030000D03*
X182880000Y-110490000D03*
X182880000Y-107950000D03*
X182880000Y-105410000D03*
X175260000Y-105410000D03*
X175260000Y-107950000D03*
X175260000Y-110490000D03*
X175260000Y-113030000D03*
X175260000Y-115570000D03*
X175260000Y-118110000D03*
X175260000Y-120650000D03*
X175260000Y-123190000D03*
X175260000Y-125730000D03*
X175260000Y-128270000D03*
%TD*%
D31*
%TO.C,SW1*%
X92290000Y-180400000D03*
X92290000Y-173900000D03*
X96790000Y-180400000D03*
X96790000Y-173900000D03*
%TD*%
D12*
%TO.C,R15*%
X153289000Y-107950000D03*
D13*
X160909000Y-107950000D03*
%TD*%
D16*
%TO.C,Y3*%
X247136500Y-168910000D03*
X247136500Y-173790000D03*
%TD*%
D14*
%TO.C,C44*%
X242521500Y-171450000D03*
X237521500Y-171450000D03*
%TD*%
D18*
%TO.C,DD25*%
X156135000Y-147305000D03*
D19*
X156135000Y-149845000D03*
X156135000Y-152385000D03*
X156135000Y-154925000D03*
X156135000Y-157465000D03*
X156135000Y-160005000D03*
X156135000Y-162545000D03*
X156135000Y-165085000D03*
X156135000Y-167625000D03*
X156135000Y-170165000D03*
X156135000Y-172705000D03*
X156135000Y-175245000D03*
X156135000Y-177785000D03*
X156135000Y-180325000D03*
X171375000Y-180325000D03*
X171375000Y-177785000D03*
X171375000Y-175245000D03*
X171375000Y-172705000D03*
X171375000Y-170165000D03*
X171375000Y-167625000D03*
X171375000Y-165085000D03*
X171375000Y-162545000D03*
X171375000Y-160005000D03*
X171375000Y-157465000D03*
X171375000Y-154925000D03*
X171375000Y-152385000D03*
X171375000Y-149845000D03*
X171375000Y-147305000D03*
%TD*%
D12*
%TO.C,R1*%
X142875000Y-92710000D03*
D13*
X142875000Y-100330000D03*
%TD*%
D14*
%TO.C,C34*%
X271780000Y-162520000D03*
X271780000Y-157520000D03*
%TD*%
%TO.C,C20*%
X139065000Y-93345000D03*
X139065000Y-88345000D03*
%TD*%
D22*
%TO.C,J6*%
X312617000Y-102875000D03*
D23*
X312617000Y-105415000D03*
X312617000Y-107955000D03*
X312617000Y-110495000D03*
X312617000Y-113035000D03*
X312617000Y-115575000D03*
X312617000Y-118115000D03*
X312617000Y-120655000D03*
%TD*%
D14*
%TO.C,C43*%
X242521500Y-175260000D03*
X237521500Y-175260000D03*
%TD*%
%TO.C,C15*%
X241340000Y-132080000D03*
X246340000Y-132080000D03*
%TD*%
D32*
%TO.C,DD46*%
X252160000Y-167005000D03*
X252160000Y-168275000D03*
X252160000Y-169545000D03*
X252160000Y-170815000D03*
X252160000Y-172085000D03*
X252160000Y-173355000D03*
X252160000Y-174625000D03*
X252160000Y-175895000D03*
X257110000Y-175895000D03*
X257110000Y-174625000D03*
X257110000Y-173355000D03*
X257110000Y-172085000D03*
X257110000Y-170815000D03*
X257110000Y-169545000D03*
X257110000Y-168275000D03*
X257110000Y-167005000D03*
%TD*%
D16*
%TO.C,Y1*%
X147320000Y-94070000D03*
X147320000Y-98950000D03*
%TD*%
D24*
%TO.C,H4*%
X78070000Y-188400000D03*
X78772944Y-186702944D03*
X78772944Y-190097056D03*
X80470000Y-186000000D03*
D25*
X80470000Y-188400000D03*
D24*
X80470000Y-190800000D03*
X82167056Y-186702944D03*
X82167056Y-190097056D03*
X82870000Y-188400000D03*
%TD*%
D33*
%TO.C,J14*%
X262815000Y-139780000D03*
D34*
X262815000Y-137780000D03*
%TD*%
D22*
%TO.C,J11*%
X87630000Y-76384000D03*
D23*
X90170000Y-76384000D03*
X92710000Y-76384000D03*
X95250000Y-76384000D03*
%TD*%
D18*
%TO.C,DD36*%
X87615000Y-82540000D03*
D19*
X87615000Y-85080000D03*
X87615000Y-87620000D03*
X87615000Y-90160000D03*
X87615000Y-92700000D03*
X87615000Y-95240000D03*
X87615000Y-97780000D03*
X87615000Y-100320000D03*
X95235000Y-100320000D03*
X95235000Y-97780000D03*
X95235000Y-95240000D03*
X95235000Y-92700000D03*
X95235000Y-90160000D03*
X95235000Y-87620000D03*
X95235000Y-85080000D03*
X95235000Y-82540000D03*
%TD*%
D14*
%TO.C,C22*%
X139065000Y-105410000D03*
X139065000Y-100410000D03*
%TD*%
M02*
