M48
; DRILL file {KiCad 8.0.2-8.0.2-0~ubuntu20.04.1} date 2024-06-07T01:09:52+0500
; FORMAT={-:-/ absolute / metric / decimal}
; #@! TF.CreationDate,2024-06-07T01:09:52+05:00
; #@! TF.GenerationSoftware,Kicad,Pcbnew,8.0.2-8.0.2-0~ubuntu20.04.1
; #@! TF.FileFunction,Plated,1,4,PTH
FMAT,2
METRIC
; #@! TA.AperFunction,Plated,PTH,ViaDrill
T1C0.300
; #@! TA.AperFunction,Plated,PTH,ComponentDrill
T2C0.500
; #@! TA.AperFunction,Plated,PTH,ComponentDrill
T3C0.700
; #@! TA.AperFunction,Plated,PTH,ComponentDrill
T4C0.750
; #@! TA.AperFunction,Plated,PTH,ComponentDrill
T5C0.800
; #@! TA.AperFunction,Plated,PTH,ComponentDrill
T6C0.900
; #@! TA.AperFunction,Plated,PTH,ComponentDrill
T7C0.950
; #@! TA.AperFunction,Plated,PTH,ComponentDrill
T8C1.000
; #@! TA.AperFunction,Plated,PTH,ComponentDrill
T9C1.100
; #@! TA.AperFunction,Plated,PTH,ComponentDrill
T10C2.200
; #@! TA.AperFunction,Plated,PTH,ComponentDrill
T11C2.300
; #@! TA.AperFunction,Plated,PTH,ComponentDrill
T12C3.200
%
G90
G05
T1
X83.745Y-124.826
X85.725Y-91.186
X87.884Y-124.841
X87.884Y-127.254
X88.519Y-132.969
X89.46Y-139.685
X89.662Y-132.715
X89.714Y-92.187
X89.749Y-94.207
X89.841Y-185.024
X90.043Y-106.807
X91.885Y-123.571
X92.329Y-99.822
X92.456Y-104.267
X93.345Y-100.076
X93.408Y-101.409
X94.615Y-165.671
X94.805Y-128.905
X95.696Y-129.983
X95.853Y-164.37
X96.482Y-163.635
X96.584Y-167.894
X97.091Y-83.439
X97.155Y-86.106
X97.155Y-121.285
X97.218Y-119.697
X97.282Y-124.46
X97.282Y-164.338
X97.599Y-116.84
X98.895Y-161.989
X100.276Y-134.884
X100.66Y-78.486
X101.219Y-134.302
X101.473Y-126.809
X102.362Y-88.9
X102.362Y-132.017
X102.552Y-128.714
X102.616Y-130.429
X102.685Y-105.346
X103.43Y-82.535
X103.43Y-83.805
X103.505Y-131.509
X103.759Y-90.17
X103.759Y-95.25
X103.759Y-96.52
X104.14Y-163.322
X104.319Y-98.474
X104.331Y-101.6
X104.515Y-132.303
X104.584Y-102.87
X104.7Y-82.535
X105.283Y-100.33
X105.97Y-86.345
X106.172Y-93.027
X106.743Y-164.401
X106.86Y-120.523
X107.24Y-85.075
X107.334Y-123.287
X107.429Y-121.687
X107.594Y-99.958
X108.077Y-115.57
X108.51Y-90.155
X108.712Y-113.03
X109.22Y-163.703
X109.347Y-110.49
X109.601Y-100.266
X109.716Y-102.22
X109.855Y-98.425
X109.918Y-107.95
X110.49Y-105.41
X110.857Y-78.839
X110.998Y-102.87
X111.442Y-81.589
X111.442Y-165.1
X111.569Y-100.33
X111.76Y-97.79
X111.76Y-175.26
X111.887Y-83.82
X113.347Y-133.223
X113.728Y-135.128
X114.173Y-132.461
X115.316Y-134.493
X115.697Y-175.655
X116.713Y-166.243
X117.221Y-175.655
X117.475Y-130.556
X117.665Y-128.397
X117.729Y-109.855
X118.11Y-136.779
X118.427Y-116.078
X118.543Y-78.725
X118.618Y-177.8
X118.67Y-140.955
X119.062Y-114.173
X119.94Y-140.955
X120.575Y-90.155
X120.575Y-91.425
X120.777Y-144.653
X122.035Y-102.806
X122.174Y-152.273
X122.809Y-103.822
X123.115Y-69.835
X123.177Y-89.446
X123.317Y-151.613
X123.449Y-159.385
X123.698Y-101.346
X123.825Y-108.902
X124.385Y-69.835
X125.158Y-108.775
X125.285Y-140.525
X125.349Y-91.821
X125.476Y-101.092
X126.111Y-149.86
X126.111Y-160.655
X126.365Y-172.72
X127.508Y-113.665
X127.698Y-89.408
X128.524Y-139.319
X128.588Y-125.793
X128.778Y-128.143
X129.984Y-178.752
X130.048Y-128.588
X130.695Y-113.768
X131.445Y-96.965
X132.715Y-128.714
X132.969Y-81.915
X133.35Y-109.093
X135.18Y-69.835
X135.826Y-135.255
X136.45Y-69.835
X136.779Y-146.431
X137.287Y-83.058
X137.477Y-85.344
X137.668Y-110.744
X138.874Y-135.255
X139.573Y-144.208
X140.098Y-139.64
X140.433Y-144.705
X141.351Y-129.032
X141.566Y-144.705
X145.975Y-95.87
X145.975Y-97.14
X147.678Y-146.624
X147.891Y-161.29
X148.082Y-124.079
X148.082Y-143.701
X148.272Y-86.36
X149.161Y-101.155
X149.391Y-143.687
X150.152Y-143.065
X151.701Y-96.774
X153.733Y-86.042
X154.813Y-129.54
X154.865Y-131.43
X154.865Y-142.225
X156.135Y-131.43
X158.496Y-139.446
X158.675Y-133.335
X159.766Y-128.397
X160.83Y-128.61
X161.418Y-127.801
X161.696Y-132.077
X162.56Y-84.264
X164.39Y-151.115
X164.719Y-147.32
X165.66Y-151.115
X166.243Y-147.383
X166.785Y-134.461
X166.93Y-151.115
X167.205Y-141.636
X167.707Y-134.69
X167.792Y-148.653
X168.021Y-192.151
X168.2Y-166.355
X168.2Y-167.625
X168.2Y-168.895
X168.212Y-136.398
X168.593Y-162.56
X169.395Y-136.536
X169.481Y-102.108
X170.914Y-101.599
X171.641Y-102.679
X171.85Y-101.753
X172.466Y-138.874
X172.974Y-133.223
X174.371Y-181.356
X174.55Y-151.115
X174.55Y-152.385
X174.589Y-99.372
X174.628Y-98.423
X174.666Y-138.477
X174.733Y-131.553
X174.752Y-144.526
X175.435Y-99.806
X175.895Y-157.48
X175.895Y-160.02
X176.276Y-143.51
X176.276Y-165.1
X176.975Y-94.297
X177.038Y-98.298
X179.324Y-80.962
X179.352Y-81.95
X182.372Y-170.18
X182.372Y-172.72
X182.894Y-98.584
X184.087Y-99.885
X184.526Y-98.147
X185.928Y-149.86
X186.182Y-152.4
X186.86Y-182.727
X187.341Y-159.198
X187.413Y-164.401
X187.96Y-157.29
X188.151Y-103.898
X188.468Y-93.98
X188.531Y-127.762
X188.659Y-169.989
X188.849Y-105.537
X189.036Y-154.893
X189.155Y-97.775
X189.23Y-106.68
X189.23Y-110.617
X189.23Y-124.46
X189.611Y-109.347
X189.611Y-172.72
X189.992Y-111.76
X190.425Y-97.775
X190.627Y-175.26
X191.579Y-152.4
X191.643Y-83.248
X191.695Y-97.775
X191.897Y-105.283
X192.151Y-128.714
X192.206Y-80.016
X192.659Y-79.181
X192.892Y-103.966
X192.913Y-82.677
X193.103Y-73.215
X193.23Y-101.282
X194.056Y-108.013
X194.077Y-136.856
X194.193Y-138.116
X194.31Y-128.143
X194.5Y-101.028
X194.818Y-126.683
X194.881Y-73.279
X195.141Y-138.055
X195.453Y-104.521
X196.342Y-140.335
X196.469Y-79.181
X196.596Y-137.731
X196.723Y-144.018
X196.85Y-117.729
X196.85Y-118.808
X197.093Y-122.921
X197.231Y-132.334
X197.739Y-119.444
X197.739Y-138.367
X198.68Y-88.25
X198.68Y-89.52
X198.68Y-90.79
X198.691Y-93.535
X198.882Y-70.104
X198.882Y-96.584
X199.263Y-119.38
X199.771Y-121.793
X200.279Y-154.94
X200.585Y-147.305
X201.676Y-140.208
X201.855Y-147.305
X202.755Y-153.606
X203.391Y-96.584
X203.454Y-132.017
X203.898Y-153.606
X204.216Y-101.854
X204.47Y-147.511
X204.978Y-100.838
X204.978Y-139.29
X205.549Y-153.289
X205.74Y-146.431
X206.946Y-149.86
X207.588Y-131.267
X208.788Y-96.139
X214.566Y-98.108
X215.773Y-149.987
X215.9Y-101.409
X215.9Y-102.552
X216.46Y-138.732
X216.916Y-149.987
X218.186Y-101.409
X218.948Y-176.53
X219.837Y-178.308
X220.27Y-123.81
X220.853Y-170.345
X220.98Y-172.085
X221.361Y-175.133
X221.805Y-150.812
X221.869Y-81.343
X222.186Y-85.217
X222.186Y-107.505
X222.758Y-82.042
X222.758Y-123.698
X223.192Y-151.168
X223.52Y-136.144
X223.52Y-170.18
X224.79Y-166.37
X225.171Y-136.271
X226.272Y-135.385
X228.79Y-91.44
X229.795Y-183.5
X229.795Y-184.77
X230.378Y-119.38
X231.065Y-183.5
X231.065Y-184.77
X231.267Y-118.364
X232.335Y-183.5
X232.335Y-184.77
X233.299Y-82.74
X238.252Y-140.843
X240.03Y-110.998
X241.808Y-177.546
X242.323Y-176.606
X242.57Y-74.295
X246.38Y-110.998
X250.063Y-135.255
X250.19Y-167.005
X252.349Y-87.63
X254.0Y-169.545
X254.0Y-168.275
X257.1Y-99.045
X257.937Y-109.22
X258.064Y-106.68
X258.37Y-99.045
X258.826Y-167.005
X259.64Y-99.045
X260.35Y-169.545
X260.35Y-175.895
X260.35Y-174.625
X260.35Y-170.815
X266.192Y-90.17
X267.399Y-94.996
X268.53Y-147.305
X269.8Y-146.035
X270.435Y-153.655
X270.637Y-147.828
X271.526Y-175.768
X271.532Y-174.631
X271.705Y-152.385
X271.705Y-153.655
X271.705Y-170.8
X274.39Y-166.034
X275.463Y-157.734
X275.59Y-184.15
X275.717Y-92.71
X276.352Y-104.457
X276.416Y-123.19
X276.733Y-158.026
X276.86Y-97.282
X276.86Y-169.481
X276.987Y-99.949
X277.114Y-92.71
X277.178Y-103.378
X277.425Y-158.677
X277.876Y-102.425
X278.003Y-160.274
X278.32Y-159.378
X278.511Y-161.163
X278.638Y-130.048
X279.4Y-141.605
X282.321Y-157.226
X283.21Y-140.462
X284.226Y-150.495
X284.48Y-147.256
X284.48Y-160.274
X284.861Y-142.367
X284.861Y-143.383
X284.861Y-144.399
X285.255Y-154.061
X285.422Y-82.291
X286.258Y-130.048
X287.02Y-161.417
X287.274Y-130.048
X287.655Y-115.57
X289.56Y-160.782
X290.576Y-115.125
X290.576Y-143.383
X291.782Y-145.542
X292.417Y-144.018
X295.2Y-163.18
X295.2Y-164.45
X295.402Y-158.115
X295.589Y-105.641
X295.91Y-102.489
X295.91Y-136.652
X297.307Y-157.988
X297.307Y-160.401
X297.942Y-100.457
X298.831Y-121.92
X298.956Y-109.308
X299.339Y-146.304
X300.164Y-135.191
X300.482Y-124.46
X300.482Y-127.063
X301.117Y-111.633
X301.155Y-115.824
X301.435Y-131.508
X303.149Y-118.11
X303.403Y-92.71
X303.657Y-141.224
X303.657Y-142.494
X304.292Y-95.25
X305.562Y-120.65
X305.816Y-123.19
X305.816Y-140.335
X306.197Y-127.0
X306.26Y-124.46
X308.61Y-142.24
X309.499Y-177.038
X310.515Y-144.78
X311.075Y-162.56
X311.15Y-181.864
X311.531Y-178.943
X314.452Y-100.076
X315.214Y-145.161
T2
X78.07Y-72.4
X78.07Y-188.4
X78.773Y-70.703
X78.773Y-74.097
X78.773Y-186.703
X78.773Y-190.097
X80.47Y-70.0
X80.47Y-74.8
X80.47Y-186.0
X80.47Y-190.8
X82.167Y-70.703
X82.167Y-74.097
X82.167Y-186.703
X82.167Y-190.097
X82.87Y-72.4
X82.87Y-188.4
X314.07Y-72.4
X314.07Y-188.4
X314.773Y-70.703
X314.773Y-74.097
X314.773Y-186.703
X314.773Y-190.097
X316.47Y-70.0
X316.47Y-74.8
X316.47Y-186.0
X316.47Y-190.8
X318.167Y-70.703
X318.167Y-74.097
X318.167Y-186.703
X318.167Y-190.097
X318.87Y-72.4
X318.87Y-188.4
T3
X109.055Y-69.85
X109.055Y-72.39
X109.055Y-74.93
X109.055Y-77.47
X116.675Y-69.85
X116.675Y-72.39
X116.675Y-74.93
X116.675Y-77.47
X130.175Y-133.985
X130.175Y-136.525
X137.795Y-133.985
X137.795Y-136.525
X142.875Y-92.71
X142.875Y-100.33
X142.875Y-127.0
X142.875Y-129.54
X150.495Y-127.0
X150.495Y-129.54
X153.289Y-105.537
X153.289Y-107.95
X160.909Y-105.537
X160.909Y-107.95
X171.375Y-69.835
X171.375Y-77.455
X234.95Y-167.64
X234.95Y-175.26
X252.603Y-119.38
X252.603Y-121.92
X252.603Y-124.46
X252.603Y-127.0
X252.73Y-132.461
X253.925Y-78.09
X260.223Y-119.38
X260.223Y-121.92
X260.223Y-124.46
X260.223Y-127.0
X260.35Y-132.461
X261.545Y-78.09
T4
X262.815Y-137.78
X262.815Y-139.78
T5
X76.195Y-107.94
X76.195Y-110.48
X76.195Y-113.02
X76.195Y-115.56
X76.195Y-118.1
X76.195Y-120.64
X76.195Y-123.18
X76.2Y-82.55
X76.2Y-85.09
X76.2Y-87.63
X76.2Y-90.17
X76.2Y-92.71
X76.2Y-95.25
X76.2Y-97.79
X76.2Y-100.33
X77.545Y-104.13
X82.545Y-104.13
X83.815Y-107.94
X83.815Y-110.48
X83.815Y-113.02
X83.815Y-115.56
X83.815Y-118.1
X83.815Y-120.64
X83.815Y-123.18
X83.82Y-82.55
X83.82Y-85.09
X83.82Y-87.63
X83.82Y-90.17
X83.82Y-92.71
X83.82Y-95.25
X83.82Y-97.79
X83.82Y-100.33
X87.615Y-82.54
X87.615Y-85.08
X87.615Y-87.62
X87.615Y-90.16
X87.615Y-92.7
X87.615Y-95.24
X87.615Y-97.78
X87.615Y-100.32
X87.64Y-107.945
X87.64Y-110.485
X87.64Y-113.025
X87.64Y-115.565
X87.64Y-118.105
X87.64Y-120.645
X87.64Y-123.185
X88.975Y-104.13
X92.075Y-128.905
X92.075Y-131.445
X92.075Y-133.985
X92.075Y-136.525
X92.075Y-139.065
X92.075Y-141.605
X92.075Y-144.145
X92.075Y-146.685
X92.075Y-149.225
X92.075Y-151.765
X93.975Y-104.13
X95.235Y-82.54
X95.235Y-85.08
X95.235Y-87.62
X95.235Y-90.16
X95.235Y-92.7
X95.235Y-95.24
X95.235Y-97.78
X95.235Y-100.32
X95.26Y-107.945
X95.26Y-110.485
X95.26Y-113.025
X95.26Y-115.565
X95.26Y-118.105
X95.26Y-120.645
X95.26Y-123.185
X97.79Y-139.74
X97.79Y-144.74
X97.79Y-151.21
X97.79Y-156.21
X98.895Y-69.85
X98.895Y-72.39
X98.895Y-74.93
X98.895Y-77.47
X99.06Y-82.55
X99.06Y-85.09
X99.06Y-87.63
X99.06Y-90.17
X99.06Y-92.71
X99.06Y-95.25
X99.06Y-97.79
X99.06Y-100.33
X99.06Y-102.87
X99.06Y-105.41
X99.06Y-107.95
X99.06Y-110.49
X99.06Y-113.03
X99.06Y-115.57
X99.06Y-118.11
X99.06Y-120.65
X99.06Y-123.19
X99.06Y-125.73
X99.06Y-128.27
X99.06Y-130.81
X101.595Y-138.415
X101.595Y-146.035
X101.595Y-149.845
X101.595Y-157.465
X101.595Y-161.26
X101.595Y-168.88
X101.595Y-172.705
X101.595Y-180.325
X104.135Y-138.415
X104.135Y-146.035
X104.135Y-149.845
X104.135Y-157.465
X104.135Y-161.26
X104.135Y-168.88
X104.135Y-172.705
X104.135Y-180.325
X106.515Y-69.85
X106.515Y-72.39
X106.515Y-74.93
X106.515Y-77.47
X106.675Y-138.415
X106.675Y-146.035
X106.675Y-149.845
X106.675Y-157.465
X106.675Y-161.26
X106.675Y-168.88
X106.675Y-172.705
X106.675Y-180.325
X109.215Y-138.415
X109.215Y-146.035
X109.215Y-149.845
X109.215Y-157.465
X109.215Y-161.26
X109.215Y-168.88
X109.215Y-172.705
X109.215Y-180.325
X111.755Y-138.415
X111.755Y-146.035
X111.755Y-149.845
X111.755Y-157.465
X111.755Y-161.26
X111.755Y-168.88
X111.755Y-172.705
X111.755Y-180.325
X114.295Y-138.415
X114.295Y-146.035
X114.295Y-149.845
X114.295Y-157.465
X114.295Y-161.26
X114.295Y-168.88
X114.295Y-172.705
X114.295Y-180.325
X114.3Y-82.55
X114.3Y-85.09
X114.3Y-87.63
X114.3Y-90.17
X114.3Y-92.71
X114.3Y-95.25
X114.3Y-97.79
X114.3Y-100.33
X114.3Y-102.87
X114.3Y-105.41
X114.3Y-107.95
X114.3Y-110.49
X114.3Y-113.03
X114.3Y-115.57
X114.3Y-118.11
X114.3Y-120.65
X114.3Y-123.19
X114.3Y-125.73
X114.3Y-128.27
X114.3Y-130.81
X116.835Y-138.415
X116.835Y-146.035
X116.835Y-149.845
X116.835Y-157.465
X116.835Y-161.26
X116.835Y-168.88
X116.835Y-172.705
X116.835Y-180.325
X119.375Y-138.415
X119.375Y-146.035
X119.375Y-149.845
X119.375Y-157.465
X119.375Y-161.26
X119.375Y-168.88
X119.375Y-172.705
X119.375Y-180.325
X120.01Y-99.075
X120.01Y-106.695
X120.015Y-86.995
X120.015Y-94.615
X120.015Y-111.125
X120.015Y-118.745
X120.015Y-123.19
X120.015Y-130.81
X120.315Y-69.85
X120.315Y-72.39
X120.315Y-74.93
X120.315Y-77.47
X121.915Y-138.415
X121.915Y-146.035
X121.915Y-149.845
X121.915Y-157.465
X121.915Y-161.26
X121.915Y-168.88
X121.915Y-172.705
X121.915Y-180.325
X122.55Y-99.075
X122.55Y-106.695
X122.555Y-86.995
X122.555Y-94.615
X122.555Y-111.125
X122.555Y-118.745
X122.555Y-123.19
X122.555Y-130.81
X124.455Y-138.415
X124.455Y-146.035
X124.455Y-149.845
X124.455Y-157.465
X124.455Y-161.26
X124.455Y-168.88
X124.455Y-172.705
X124.455Y-180.325
X125.09Y-99.075
X125.09Y-106.695
X125.095Y-86.995
X125.095Y-94.615
X125.095Y-111.125
X125.095Y-118.745
X125.095Y-123.19
X125.095Y-130.81
X127.63Y-99.075
X127.63Y-106.695
X127.635Y-86.995
X127.635Y-94.615
X127.635Y-111.125
X127.635Y-118.745
X127.635Y-123.19
X127.635Y-130.81
X127.935Y-69.85
X127.935Y-72.39
X127.935Y-74.93
X127.935Y-77.47
X128.27Y-162.6
X128.27Y-167.6
X128.27Y-173.99
X128.27Y-178.99
X130.17Y-99.075
X130.17Y-106.695
X130.175Y-86.995
X130.175Y-94.615
X130.175Y-111.125
X130.175Y-118.745
X130.175Y-123.19
X130.175Y-130.81
X131.915Y-69.85
X131.915Y-72.39
X131.915Y-74.93
X131.915Y-77.47
X132.71Y-99.075
X132.71Y-106.695
X132.715Y-86.995
X132.715Y-94.615
X132.715Y-111.125
X132.715Y-118.745
X132.715Y-123.19
X132.715Y-130.81
X133.275Y-147.305
X133.275Y-149.845
X133.275Y-152.385
X133.275Y-154.925
X133.275Y-157.465
X133.275Y-160.005
X133.275Y-162.545
X133.275Y-165.085
X133.275Y-167.625
X133.275Y-170.165
X133.275Y-172.705
X133.275Y-175.245
X133.275Y-177.785
X133.275Y-180.325
X134.7Y-142.24
X135.25Y-99.075
X135.25Y-106.695
X135.255Y-86.995
X135.255Y-94.615
X135.255Y-111.125
X135.255Y-118.745
X135.255Y-123.19
X135.255Y-130.81
X139.065Y-88.345
X139.065Y-93.345
X139.065Y-100.41
X139.065Y-105.41
X139.065Y-112.515
X139.065Y-117.515
X139.065Y-124.54
X139.065Y-129.54
X139.535Y-69.85
X139.535Y-72.39
X139.535Y-74.93
X139.535Y-77.47
X139.7Y-142.24
X140.895Y-147.305
X140.895Y-149.845
X140.895Y-152.385
X140.895Y-154.925
X140.895Y-157.465
X140.895Y-160.005
X140.895Y-162.545
X140.895Y-165.085
X140.895Y-167.625
X140.895Y-170.165
X140.895Y-172.705
X140.895Y-175.245
X140.895Y-177.785
X140.895Y-180.325
X142.875Y-82.55
X142.875Y-87.55
X142.875Y-106.045
X142.875Y-108.585
X142.875Y-111.125
X142.875Y-113.665
X142.875Y-116.205
X142.875Y-118.745
X142.875Y-121.285
X142.875Y-123.825
X143.51Y-71.12
X143.51Y-76.12
X144.705Y-147.305
X144.705Y-149.845
X144.705Y-152.385
X144.705Y-154.925
X144.705Y-157.465
X144.705Y-160.005
X144.705Y-162.545
X144.705Y-165.085
X144.705Y-167.625
X144.705Y-170.165
X144.705Y-172.705
X144.705Y-175.245
X144.705Y-177.785
X144.705Y-180.325
X147.32Y-82.55
X147.32Y-87.55
X147.32Y-94.07
X147.32Y-98.95
X147.955Y-70.993
X147.955Y-73.533
X147.955Y-76.073
X150.495Y-106.045
X150.495Y-108.585
X150.495Y-111.125
X150.495Y-113.665
X150.495Y-116.205
X150.495Y-118.745
X150.495Y-121.285
X150.495Y-123.825
X152.325Y-147.305
X152.325Y-149.845
X152.325Y-152.385
X152.325Y-154.925
X152.325Y-157.465
X152.325Y-160.005
X152.325Y-162.545
X152.325Y-165.085
X152.325Y-167.625
X152.325Y-170.165
X152.325Y-172.705
X152.325Y-175.245
X152.325Y-177.785
X152.325Y-180.325
X152.4Y-80.01
X152.4Y-87.63
X152.4Y-92.71
X152.4Y-100.33
X153.035Y-186.69
X154.94Y-80.01
X154.94Y-87.63
X154.94Y-92.71
X154.94Y-100.33
X155.575Y-71.12
X155.575Y-76.12
X155.575Y-186.69
X156.135Y-147.305
X156.135Y-149.845
X156.135Y-152.385
X156.135Y-154.925
X156.135Y-157.465
X156.135Y-160.005
X156.135Y-162.545
X156.135Y-165.085
X156.135Y-167.625
X156.135Y-170.165
X156.135Y-172.705
X156.135Y-175.245
X156.135Y-177.785
X156.135Y-180.325
X157.48Y-80.01
X157.48Y-87.63
X157.48Y-92.71
X157.48Y-100.33
X158.115Y-186.69
X160.02Y-80.01
X160.02Y-87.63
X160.02Y-92.71
X160.02Y-100.33
X162.56Y-80.01
X162.56Y-87.63
X162.56Y-92.71
X162.56Y-100.33
X163.235Y-186.055
X163.83Y-105.41
X163.83Y-107.95
X163.83Y-110.49
X163.83Y-113.03
X163.83Y-115.57
X163.83Y-118.11
X163.83Y-120.65
X163.83Y-123.19
X163.83Y-125.73
X163.83Y-128.27
X165.025Y-71.12
X165.025Y-76.12
X165.1Y-80.01
X165.1Y-87.63
X165.1Y-92.71
X165.1Y-100.33
X167.64Y-80.01
X167.64Y-87.63
X167.64Y-92.71
X167.64Y-100.33
X168.235Y-186.055
X171.375Y-147.305
X171.375Y-149.845
X171.375Y-152.385
X171.375Y-154.925
X171.375Y-157.465
X171.375Y-160.005
X171.375Y-162.545
X171.375Y-165.085
X171.375Y-167.625
X171.375Y-170.165
X171.375Y-172.705
X171.375Y-175.245
X171.375Y-177.785
X171.375Y-180.325
X171.45Y-81.32
X171.45Y-86.32
X171.45Y-94.02
X171.45Y-99.02
X171.45Y-105.41
X171.45Y-107.95
X171.45Y-110.49
X171.45Y-113.03
X171.45Y-115.57
X171.45Y-118.11
X171.45Y-120.65
X171.45Y-123.19
X171.45Y-125.73
X171.45Y-128.27
X175.26Y-80.01
X175.26Y-82.55
X175.26Y-85.09
X175.26Y-87.63
X175.26Y-90.17
X175.26Y-92.71
X175.26Y-95.25
X175.26Y-105.41
X175.26Y-107.95
X175.26Y-110.49
X175.26Y-113.03
X175.26Y-115.57
X175.26Y-118.11
X175.26Y-120.65
X175.26Y-123.19
X175.26Y-125.73
X175.26Y-128.27
X175.693Y-185.42
X175.693Y-188.92
X176.57Y-76.2
X176.57Y-101.6
X179.07Y-147.32
X179.07Y-149.86
X179.07Y-152.4
X179.07Y-154.94
X179.07Y-157.48
X179.07Y-160.02
X179.07Y-162.56
X179.07Y-165.1
X179.07Y-167.64
X179.07Y-170.18
X179.07Y-172.72
X179.07Y-175.26
X179.07Y-177.8
X179.07Y-180.34
X181.57Y-76.2
X181.57Y-101.6
X182.88Y-80.01
X182.88Y-82.55
X182.88Y-85.09
X182.88Y-87.63
X182.88Y-90.17
X182.88Y-92.71
X182.88Y-95.25
X182.88Y-105.41
X182.88Y-107.95
X182.88Y-110.49
X182.88Y-113.03
X182.88Y-115.57
X182.88Y-118.11
X182.88Y-120.65
X182.88Y-123.19
X182.88Y-125.73
X182.88Y-128.27
X185.243Y-185.42
X185.243Y-188.92
X186.69Y-80.01
X186.69Y-82.55
X186.69Y-85.09
X186.69Y-87.63
X186.69Y-90.17
X186.69Y-92.71
X186.69Y-95.25
X186.69Y-97.79
X186.69Y-100.33
X186.69Y-102.87
X186.69Y-105.41
X186.69Y-107.95
X186.69Y-110.49
X186.69Y-113.03
X186.69Y-115.57
X186.69Y-118.11
X186.69Y-120.65
X186.69Y-123.19
X186.69Y-125.73
X186.69Y-128.27
X190.5Y-134.62
X190.5Y-142.24
X193.04Y-134.62
X193.04Y-142.24
X194.31Y-147.32
X194.31Y-149.86
X194.31Y-152.4
X194.31Y-154.94
X194.31Y-157.48
X194.31Y-160.02
X194.31Y-162.56
X194.31Y-165.1
X194.31Y-167.64
X194.31Y-170.18
X194.31Y-172.72
X194.31Y-175.26
X194.31Y-177.8
X194.31Y-180.34
X194.793Y-185.42
X194.793Y-188.92
X195.58Y-134.62
X195.58Y-142.24
X198.12Y-134.62
X198.12Y-142.24
X198.12Y-147.32
X198.12Y-149.86
X198.12Y-152.4
X198.12Y-154.94
X198.12Y-157.48
X198.12Y-160.02
X198.12Y-162.56
X198.12Y-165.1
X198.12Y-167.64
X198.12Y-170.18
X198.12Y-172.72
X198.12Y-175.26
X198.12Y-177.8
X198.12Y-180.34
X200.66Y-134.62
X200.66Y-142.24
X201.93Y-80.01
X201.93Y-82.55
X201.93Y-85.09
X201.93Y-87.63
X201.93Y-90.17
X201.93Y-92.71
X201.93Y-95.25
X201.93Y-97.79
X201.93Y-100.33
X201.93Y-102.87
X201.93Y-105.41
X201.93Y-107.95
X201.93Y-110.49
X201.93Y-113.03
X201.93Y-115.57
X201.93Y-118.11
X201.93Y-120.65
X201.93Y-123.19
X201.93Y-125.73
X201.93Y-128.27
X203.2Y-134.62
X203.2Y-142.24
X204.343Y-185.42
X204.343Y-188.92
X205.74Y-76.2
X205.74Y-80.01
X205.74Y-82.55
X205.74Y-85.09
X205.74Y-87.63
X205.74Y-90.17
X205.74Y-92.71
X205.74Y-95.25
X205.74Y-110.49
X205.74Y-113.03
X205.74Y-115.57
X205.74Y-118.11
X205.74Y-120.65
X205.74Y-123.19
X205.74Y-125.73
X205.74Y-128.27
X205.74Y-134.62
X205.74Y-142.24
X207.05Y-106.68
X207.09Y-99.06
X208.28Y-76.2
X208.28Y-134.62
X208.28Y-142.24
X210.82Y-76.2
X210.82Y-134.62
X210.82Y-142.24
X211.455Y-184.825
X211.455Y-189.825
X212.05Y-106.68
X212.09Y-99.06
X213.36Y-76.2
X213.36Y-80.01
X213.36Y-82.55
X213.36Y-85.09
X213.36Y-87.63
X213.36Y-90.17
X213.36Y-92.71
X213.36Y-95.25
X213.36Y-110.49
X213.36Y-113.03
X213.36Y-115.57
X213.36Y-118.11
X213.36Y-120.65
X213.36Y-123.19
X213.36Y-125.73
X213.36Y-128.27
X213.36Y-134.62
X213.36Y-142.24
X213.36Y-147.32
X213.36Y-149.86
X213.36Y-152.4
X213.36Y-154.94
X213.36Y-157.48
X213.36Y-160.02
X213.36Y-162.56
X213.36Y-165.1
X213.36Y-167.64
X213.36Y-170.18
X213.36Y-172.72
X213.36Y-175.26
X213.36Y-177.8
X213.36Y-180.34
X215.9Y-76.2
X215.9Y-134.62
X215.9Y-142.24
X217.17Y-80.01
X217.17Y-82.55
X217.17Y-85.09
X217.17Y-87.63
X217.17Y-90.17
X217.17Y-92.71
X217.17Y-95.25
X217.17Y-105.41
X217.17Y-107.95
X217.17Y-110.49
X217.17Y-113.03
X217.17Y-115.57
X217.17Y-118.11
X217.17Y-120.65
X217.17Y-123.19
X217.17Y-125.73
X217.17Y-128.27
X218.44Y-76.2
X218.44Y-134.62
X218.44Y-142.24
X218.48Y-99.06
X220.98Y-76.2
X223.48Y-99.06
X223.52Y-76.2
X224.79Y-80.01
X224.79Y-82.55
X224.79Y-85.09
X224.79Y-87.63
X224.79Y-90.17
X224.79Y-92.71
X224.79Y-95.25
X224.79Y-105.41
X224.79Y-107.95
X224.79Y-110.49
X224.79Y-113.03
X224.79Y-115.57
X224.79Y-118.11
X224.79Y-120.65
X224.79Y-123.19
X224.79Y-125.73
X224.79Y-128.27
X226.06Y-76.2
X228.595Y-137.175
X228.595Y-144.795
X228.6Y-76.2
X228.6Y-101.6
X228.6Y-109.22
X228.6Y-113.03
X228.6Y-115.57
X228.6Y-118.11
X228.6Y-120.65
X228.6Y-123.19
X228.6Y-125.73
X228.6Y-128.27
X229.91Y-132.08
X231.135Y-137.175
X231.135Y-144.795
X231.14Y-80.01
X231.14Y-82.55
X231.14Y-85.09
X231.14Y-87.63
X231.14Y-90.17
X231.14Y-92.71
X231.14Y-95.25
X231.14Y-101.6
X231.14Y-109.22
X233.675Y-137.175
X233.675Y-144.795
X233.68Y-101.6
X233.68Y-109.22
X234.91Y-132.08
X236.215Y-137.175
X236.215Y-144.795
X236.22Y-101.6
X236.22Y-109.22
X236.22Y-113.03
X236.22Y-115.57
X236.22Y-118.11
X236.22Y-120.65
X236.22Y-123.19
X236.22Y-125.73
X236.22Y-128.27
X237.522Y-167.64
X237.522Y-171.45
X237.522Y-175.26
X238.755Y-137.175
X238.755Y-144.795
X238.76Y-80.01
X238.76Y-82.55
X238.76Y-85.09
X238.76Y-87.63
X238.76Y-90.17
X238.76Y-92.71
X238.76Y-95.25
X238.76Y-101.6
X238.76Y-109.22
X240.03Y-113.03
X240.03Y-115.57
X240.03Y-118.11
X240.03Y-120.65
X240.03Y-123.19
X240.03Y-125.73
X240.03Y-128.27
X241.295Y-137.175
X241.295Y-144.795
X241.3Y-101.6
X241.3Y-109.22
X241.34Y-132.08
X242.522Y-167.64
X242.522Y-171.45
X242.522Y-175.26
X242.57Y-80.01
X242.57Y-82.55
X242.57Y-85.09
X242.57Y-87.63
X242.57Y-90.17
X242.57Y-92.71
X242.57Y-95.25
X243.835Y-137.175
X243.835Y-144.795
X243.84Y-101.6
X243.84Y-109.22
X243.88Y-76.332
X246.34Y-132.08
X246.375Y-137.175
X246.375Y-144.795
X247.136Y-168.91
X247.136Y-173.79
X247.65Y-113.03
X247.65Y-115.57
X247.65Y-118.11
X247.65Y-120.65
X247.65Y-123.19
X247.65Y-125.73
X247.65Y-128.27
X248.285Y-102.95
X248.285Y-107.95
X248.88Y-76.332
X248.915Y-137.175
X248.915Y-144.795
X250.19Y-80.01
X250.19Y-82.55
X250.19Y-85.09
X250.19Y-87.63
X250.19Y-90.17
X250.19Y-92.71
X250.19Y-95.25
X251.455Y-137.175
X251.455Y-144.795
X253.995Y-137.175
X253.995Y-144.795
X254.635Y-85.095
X254.635Y-87.635
X254.635Y-90.175
X254.635Y-92.715
X254.635Y-95.255
X254.635Y-97.795
X254.635Y-100.335
X254.635Y-102.875
X254.635Y-105.415
X254.635Y-107.955
X254.635Y-110.495
X254.635Y-113.035
X256.505Y-81.265
X256.535Y-137.175
X256.535Y-144.795
X261.505Y-81.265
X265.35Y-167.68
X265.35Y-172.68
X265.35Y-175.935
X265.35Y-180.935
X266.065Y-118.11
X266.065Y-125.73
X268.605Y-118.11
X268.605Y-125.73
X269.875Y-85.095
X269.875Y-87.635
X269.875Y-90.175
X269.875Y-92.715
X269.875Y-95.255
X269.875Y-97.795
X269.875Y-100.335
X269.875Y-102.875
X269.875Y-105.415
X269.875Y-107.955
X269.875Y-110.495
X269.875Y-113.035
X270.51Y-172.92
X270.51Y-177.8
X271.145Y-118.11
X271.145Y-125.73
X271.705Y-184.175
X271.705Y-189.175
X271.78Y-138.47
X271.78Y-143.47
X271.78Y-157.52
X271.78Y-162.52
X273.685Y-85.095
X273.685Y-87.635
X273.685Y-90.175
X273.685Y-92.715
X273.685Y-95.255
X273.685Y-97.795
X273.685Y-100.335
X273.685Y-102.875
X273.685Y-105.415
X273.685Y-107.955
X273.685Y-110.495
X273.685Y-113.035
X273.685Y-118.11
X273.685Y-125.73
X275.58Y-171.435
X275.58Y-179.055
X275.59Y-133.355
X275.59Y-148.595
X275.59Y-152.405
X275.59Y-167.645
X276.225Y-118.11
X276.225Y-125.73
X278.12Y-171.435
X278.12Y-179.055
X278.13Y-133.355
X278.13Y-148.595
X278.13Y-152.405
X278.13Y-167.645
X278.765Y-118.11
X278.765Y-125.73
X278.845Y-81.28
X280.66Y-171.435
X280.66Y-179.055
X280.67Y-133.355
X280.67Y-148.595
X280.67Y-152.405
X280.67Y-167.645
X281.305Y-118.11
X281.305Y-125.73
X283.2Y-171.435
X283.2Y-179.055
X283.21Y-133.355
X283.21Y-148.595
X283.21Y-152.405
X283.21Y-167.645
X283.845Y-81.28
X285.115Y-119.38
X285.115Y-124.38
X285.74Y-171.435
X285.74Y-179.055
X285.75Y-133.355
X285.75Y-148.595
X285.75Y-152.405
X285.75Y-167.645
X288.28Y-171.435
X288.28Y-179.055
X288.29Y-133.355
X288.29Y-148.595
X288.29Y-152.405
X288.29Y-167.645
X288.925Y-85.095
X288.925Y-87.635
X288.925Y-90.175
X288.925Y-92.715
X288.925Y-95.255
X288.925Y-97.795
X288.925Y-100.335
X288.925Y-102.875
X288.925Y-105.415
X288.925Y-107.955
X288.925Y-110.495
X288.925Y-113.035
X290.82Y-171.435
X290.82Y-179.055
X290.83Y-133.355
X290.83Y-148.595
X290.83Y-152.405
X290.83Y-167.645
X291.465Y-76.2
X292.805Y-80.015
X292.805Y-82.555
X292.805Y-85.095
X292.805Y-87.635
X292.805Y-90.175
X292.805Y-92.715
X292.805Y-95.255
X292.805Y-97.795
X292.805Y-100.335
X292.805Y-102.875
X292.805Y-105.415
X292.805Y-107.955
X292.805Y-110.495
X292.805Y-113.035
X292.805Y-115.575
X292.805Y-118.115
X292.805Y-120.655
X292.805Y-123.195
X292.805Y-125.735
X292.805Y-128.275
X293.36Y-171.435
X293.36Y-179.055
X293.37Y-133.355
X293.37Y-148.595
X293.37Y-152.405
X293.37Y-167.645
X295.9Y-171.435
X295.9Y-179.055
X295.91Y-133.355
X295.91Y-148.595
X295.91Y-152.405
X295.91Y-167.645
X296.465Y-76.2
X298.44Y-171.435
X298.44Y-179.055
X298.45Y-133.355
X298.45Y-148.595
X298.45Y-152.405
X298.45Y-167.645
X300.98Y-171.435
X300.98Y-179.055
X300.99Y-133.355
X300.99Y-148.595
X300.99Y-152.405
X300.99Y-167.645
X303.52Y-171.435
X303.52Y-179.055
X303.53Y-133.355
X303.53Y-148.595
X303.53Y-152.405
X303.53Y-167.645
X306.06Y-171.435
X306.06Y-179.055
X306.07Y-133.355
X306.07Y-148.595
X306.07Y-152.405
X306.07Y-167.645
X308.045Y-80.015
X308.045Y-82.555
X308.045Y-85.095
X308.045Y-87.635
X308.045Y-90.175
X308.045Y-92.715
X308.045Y-95.255
X308.045Y-97.795
X308.045Y-100.335
X308.045Y-102.875
X308.045Y-105.415
X308.045Y-107.955
X308.045Y-110.495
X308.045Y-113.035
X308.045Y-115.575
X308.045Y-118.115
X308.045Y-120.655
X308.045Y-123.195
X308.045Y-125.735
X308.045Y-128.275
X308.6Y-171.435
X308.6Y-179.055
X308.61Y-133.355
X308.61Y-148.595
X308.61Y-152.405
X308.61Y-167.645
T6
X216.353Y-188.5
X218.893Y-188.5
X240.59Y-188.5
X243.13Y-188.5
X278.936Y-183.984
X278.936Y-186.484
X281.036Y-186.484
X283.636Y-186.484
X285.736Y-183.984
X285.736Y-186.484
X297.336Y-183.984
X297.336Y-186.484
X299.436Y-186.484
X302.036Y-186.484
X304.136Y-183.984
X304.136Y-186.484
T7
X228.514Y-179.734
X228.514Y-181.734
X231.014Y-179.734
X231.014Y-181.734
X252.675Y-179.734
X252.675Y-181.734
X255.175Y-179.734
X255.175Y-181.734
T8
X84.45Y-128.89
X84.45Y-131.43
X84.45Y-133.97
X84.45Y-136.51
X84.45Y-139.05
X84.45Y-141.59
X84.45Y-144.13
X84.45Y-146.67
X84.45Y-149.21
X84.45Y-151.75
X84.45Y-154.29
X84.45Y-156.83
X84.45Y-159.37
X84.45Y-161.91
X84.45Y-164.45
X84.45Y-166.99
X84.45Y-169.53
X84.45Y-172.07
X84.45Y-174.61
X84.45Y-177.15
X84.45Y-179.69
X86.99Y-128.89
X86.99Y-131.43
X86.99Y-133.97
X86.99Y-136.51
X86.99Y-139.05
X86.99Y-141.59
X86.99Y-144.13
X86.99Y-146.67
X86.99Y-149.21
X86.99Y-151.75
X86.99Y-154.29
X86.99Y-156.83
X86.99Y-159.37
X86.99Y-161.91
X86.99Y-164.45
X86.99Y-166.99
X86.99Y-169.53
X86.99Y-172.07
X86.99Y-174.61
X86.99Y-177.15
X86.99Y-179.69
X87.63Y-76.384
X90.17Y-76.384
X92.71Y-76.384
X93.98Y-186.69
X95.25Y-76.384
X96.52Y-186.69
X99.06Y-186.69
X101.6Y-186.69
X104.14Y-186.69
X106.68Y-186.69
X109.22Y-186.69
X111.76Y-186.69
X114.3Y-186.69
X116.84Y-186.69
X119.38Y-186.69
X121.92Y-186.69
X124.46Y-186.69
X127.0Y-186.69
X129.54Y-186.69
X132.08Y-186.69
X134.62Y-186.69
X137.16Y-186.69
X139.7Y-186.69
X142.24Y-186.69
X144.78Y-186.69
X154.94Y-116.205
X154.94Y-118.745
X154.94Y-121.285
X154.94Y-123.825
X157.48Y-116.205
X157.48Y-118.745
X157.48Y-121.285
X157.48Y-123.825
X223.52Y-148.59
X226.06Y-148.59
X228.6Y-148.59
X231.14Y-148.59
X233.68Y-148.59
X236.22Y-148.59
X238.76Y-148.59
X241.3Y-148.59
X243.84Y-148.59
X246.38Y-148.59
X248.92Y-148.59
X251.46Y-148.59
X254.0Y-148.59
X256.54Y-148.59
X259.08Y-148.59
X261.62Y-148.59
X265.99Y-74.915
X275.99Y-74.915
X301.0Y-76.327
X303.54Y-76.327
X306.08Y-76.327
X308.62Y-76.327
X312.617Y-80.015
X312.617Y-82.555
X312.617Y-85.095
X312.617Y-87.635
X312.617Y-90.175
X312.617Y-92.715
X312.617Y-95.255
X312.617Y-97.795
X312.617Y-102.875
X312.617Y-105.415
X312.617Y-107.955
X312.617Y-110.495
X312.617Y-113.035
X312.617Y-115.575
X312.617Y-118.115
X312.617Y-120.655
X312.617Y-125.735
X312.617Y-128.275
X312.617Y-130.815
X312.617Y-133.355
X312.617Y-135.895
X312.617Y-138.435
X312.617Y-140.975
X312.617Y-143.515
X312.617Y-146.055
X312.617Y-148.595
X312.617Y-153.675
X312.617Y-156.215
X312.617Y-158.755
X312.617Y-161.295
X312.617Y-163.835
X312.617Y-166.375
X312.617Y-168.915
X312.617Y-171.455
X312.617Y-173.995
X312.617Y-176.535
T9
X92.29Y-173.9
X92.29Y-180.4
X96.79Y-173.9
X96.79Y-180.4
T10
X275.586Y-189.484
X282.336Y-190.284
X289.086Y-189.484
X293.986Y-189.484
X300.736Y-190.284
X307.486Y-189.484
T11
X223.764Y-184.594
X235.764Y-184.594
X247.925Y-184.594
X259.925Y-184.594
T12
X80.47Y-72.4
X80.47Y-188.4
X316.47Y-72.4
X316.47Y-188.4
M30
